  0
SECTION
  2
HEADER
  9
$ACADVER
  1
AC1002
  9
$USERI1
 70
11235
  9
$INSBASE
 10
0.000000
 20
0.000000
  9
$EXTMIN
 10
-19.009308
 20
-954.000000
  9
$EXTMAX
 10
909.787409
 20
74.250000
  9
$LIMMIN
 10
0.000000
 20
0.000000
  9
$LIMMAX
 10
12.000000
 20
9.000000
  9
$VIEWCTR
 10
445.389051
 20
-439.875000
  9
$VIEWSIZE
 40
1028.250000
  9
$TEXTSIZE
 40
0.100000
  9
$TRACEWID
 40
0.010000
  9
$LTSCALE
 40
25.000000
  0
ENDSEC
  0
SECTION
  2
TABLES
  0
TABLE
  2
LTYPE
 70
     3
  0
LTYPE
  2
CONTINUOUS
 70
    64
  3
Solid line
 72
    65
 73
     0
 40
0.000000
  0
LTYPE
  2
ESTILO_TQS_0001
 70
    64
  3
-  -  -  -  -  -
 72
    65
 73
     2
 40
1.000000
 49
0.700000
 49
-0.300000
  0
LTYPE
  2
ESTILO_TQS_0002
 70
    64
  3
. . . . . . . .
 72
    65
 73
     2
 40
0.400000
 49
0.100000
 49
-0.300000
  0
LTYPE
  2
ESTILO_TQS_0003
 70
    64
  3
- . - . - . - .
 72
    65
 73
     4
 40
0.910000
 49
0.500000
 49
-0.200000
 49
0.010000
 49
-0.200000
  0
LTYPE
  2
ESTILO_TQS_0004
 70
    64
  3
- .. - .. - ..
 72
    65
 73
     6
 40
1.120000
 49
0.500000
 49
-0.200000
 49
0.010000
 49
-0.200000
 49
0.010000
 49
-0.200000
  0
LTYPE
  2
CONTINUOUS
 70
    64
  3
- - - - - - - -
 72
    65
 73
     2
 40
0.400000
 49
0.300000
 49
-0.100000
  0
ENDTAB
  0
TABLE
  2
LAYER
 70
    89
  0
LAYER
  2
0
 70
     0
 62
     7
  6
CONTINUOUS
  0
LAYER
  2
1
 70
     0
 62
     2
  6
CONTINUOUS
  0
LAYER
  2
2
 70
     0
 62
     2
  6
CONTINUOUS
  0
LAYER
  2
3
 70
     0
 62
     2
  6
CONTINUOUS
  0
LAYER
  2
4
 70
     0
 62
     2
  6
CONTINUOUS
  0
LAYER
  2
5
 70
     0
 62
     2
  6
CONTINUOUS
  0
LAYER
  2
6
 70
     0
 62
     2
  6
CONTINUOUS
  0
LAYER
  2
7
 70
     0
 62
     2
  6
CONTINUOUS
  0
LAYER
  2
8
 70
     0
 62
     2
  6
CONTINUOUS
  0
LAYER
  2
9
 70
     0
 62
     2
  6
CONTINUOUS
  0
LAYER
  2
10
 70
     0
 62
     2
  6
CONTINUOUS
  0
LAYER
  2
11
 70
     0
 62
     2
  6
CONTINUOUS
  0
LAYER
  2
12
 70
     0
 62
     2
  6
CONTINUOUS
  0
LAYER
  2
13
 70
     0
 62
     2
  6
CONTINUOUS
  0
LAYER
  2
14
 70
     0
 62
     2
  6
CONTINUOUS
  0
LAYER
  2
15
 70
     0
 62
     2
  6
CONTINUOUS
  0
LAYER
  2
16
 70
     0
 62
     2
  6
CONTINUOUS
  0
LAYER
  2
17
 70
     0
 62
     2
  6
CONTINUOUS
  0
LAYER
  2
18
 70
     0
 62
     2
  6
CONTINUOUS
  0
LAYER
  2
19
 70
     0
 62
     2
  6
CONTINUOUS
  0
LAYER
  2
20
 70
     0
 62
     2
  6
CONTINUOUS
  0
LAYER
  2
21
 70
     0
 62
     2
  6
CONTINUOUS
  0
LAYER
  2
22
 70
     0
 62
     2
  6
CONTINUOUS
  0
LAYER
  2
23
 70
     0
 62
     2
  6
CONTINUOUS
  0
LAYER
  2
24
 70
     0
 62
     2
  6
CONTINUOUS
  0
LAYER
  2
25
 70
     0
 62
     2
  6
CONTINUOUS
  0
LAYER
  2
26
 70
     0
 62
     2
  6
CONTINUOUS
  0
LAYER
  2
27
 70
     0
 62
     2
  6
CONTINUOUS
  0
LAYER
  2
28
 70
     0
 62
     2
  6
CONTINUOUS
  0
LAYER
  2
29
 70
     0
 62
     2
  6
CONTINUOUS
  0
LAYER
  2
30
 70
     0
 62
     2
  6
CONTINUOUS
  0
LAYER
  2
31
 70
     0
 62
     2
  6
CONTINUOUS
  0
LAYER
  2
32
 70
     0
 62
     2
  6
CONTINUOUS
  0
LAYER
  2
33
 70
     0
 62
     2
  6
CONTINUOUS
  0
LAYER
  2
34
 70
     0
 62
     2
  6
CONTINUOUS
  0
LAYER
  2
35
 70
     0
 62
     2
  6
CONTINUOUS
  0
LAYER
  2
36
 70
     0
 62
     2
  6
CONTINUOUS
  0
LAYER
  2
37
 70
     0
 62
     2
  6
CONTINUOUS
  0
LAYER
  2
38
 70
     0
 62
     2
  6
CONTINUOUS
  0
LAYER
  2
39
 70
     0
 62
     2
  6
CONTINUOUS
  0
LAYER
  2
40
 70
     0
 62
     2
  6
CONTINUOUS
  0
LAYER
  2
41
 70
     0
 62
     2
  6
CONTINUOUS
  0
LAYER
  2
42
 70
     0
 62
     2
  6
CONTINUOUS
  0
LAYER
  2
43
 70
     0
 62
     2
  6
CONTINUOUS
  0
LAYER
  2
44
 70
     0
 62
     2
  6
CONTINUOUS
  0
LAYER
  2
45
 70
     0
 62
     2
  6
CONTINUOUS
  0
LAYER
  2
46
 70
     0
 62
     2
  6
CONTINUOUS
  0
LAYER
  2
47
 70
     0
 62
     2
  6
CONTINUOUS
  0
LAYER
  2
48
 70
     0
 62
     2
  6
CONTINUOUS
  0
LAYER
  2
49
 70
     0
 62
     2
  6
CONTINUOUS
  0
LAYER
  2
50
 70
     0
 62
     2
  6
CONTINUOUS
  0
LAYER
  2
51
 70
     0
 62
     2
  6
CONTINUOUS
  0
LAYER
  2
52
 70
     0
 62
     2
  6
CONTINUOUS
  0
LAYER
  2
53
 70
     0
 62
     2
  6
CONTINUOUS
  0
LAYER
  2
54
 70
     0
 62
     2
  6
CONTINUOUS
  0
LAYER
  2
55
 70
     0
 62
     2
  6
CONTINUOUS
  0
LAYER
  2
56
 70
     0
 62
     2
  6
CONTINUOUS
  0
LAYER
  2
57
 70
     0
 62
     2
  6
CONTINUOUS
  0
LAYER
  2
58
 70
     0
 62
     2
  6
CONTINUOUS
  0
LAYER
  2
59
 70
     0
 62
     2
  6
CONTINUOUS
  0
LAYER
  2
60
 70
     0
 62
     2
  6
CONTINUOUS
  0
LAYER
  2
61
 70
     0
 62
     2
  6
CONTINUOUS
  0
LAYER
  2
62
 70
     0
 62
     2
  6
CONTINUOUS
  0
LAYER
  2
63
 70
     0
 62
     2
  6
CONTINUOUS
  0
LAYER
  2
64
 70
     0
 62
     2
  6
CONTINUOUS
  0
LAYER
  2
65
 70
     0
 62
     2
  6
CONTINUOUS
  0
LAYER
  2
66
 70
     0
 62
     2
  6
CONTINUOUS
  0
LAYER
  2
67
 70
     0
 62
     2
  6
CONTINUOUS
  0
LAYER
  2
68
 70
     0
 62
     2
  6
CONTINUOUS
  0
LAYER
  2
69
 70
     0
 62
     2
  6
CONTINUOUS
  0
LAYER
  2
70
 70
     0
 62
     2
  6
CONTINUOUS
  0
LAYER
  2
71
 70
     0
 62
     2
  6
CONTINUOUS
  0
LAYER
  2
72
 70
     0
 62
     2
  6
CONTINUOUS
  0
LAYER
  2
73
 70
     0
 62
     2
  6
CONTINUOUS
  0
LAYER
  2
74
 70
     0
 62
     2
  6
CONTINUOUS
  0
LAYER
  2
75
 70
     0
 62
     2
  6
CONTINUOUS
  0
LAYER
  2
76
 70
     0
 62
     2
  6
CONTINUOUS
  0
LAYER
  2
77
 70
     0
 62
     2
  6
CONTINUOUS
  0
LAYER
  2
78
 70
     0
 62
     2
  6
CONTINUOUS
  0
LAYER
  2
79
 70
     0
 62
     2
  6
CONTINUOUS
  0
LAYER
  2
80
 70
     0
 62
     2
  6
CONTINUOUS
  0
LAYER
  2
81
 70
     0
 62
     2
  6
CONTINUOUS
  0
LAYER
  2
82
 70
     0
 62
     2
  6
CONTINUOUS
  0
LAYER
  2
83
 70
     0
 62
     2
  6
CONTINUOUS
  0
LAYER
  2
84
 70
     0
 62
     2
  6
CONTINUOUS
  0
LAYER
  2
85
 70
     0
 62
     2
  6
CONTINUOUS
  0
LAYER
  2
86
 70
     0
 62
     2
  6
CONTINUOUS
  0
LAYER
  2
87
 70
     0
 62
     2
  6
CONTINUOUS
  0
LAYER
  2
88
 70
     0
 62
     2
  6
CONTINUOUS
  0
LAYER
  2
89
 70
     0
 62
     2
  6
CONTINUOUS
  0
LAYER
  2
90
 70
     0
 62
     2
  6
CONTINUOUS
  0
LAYER
  2
91
 70
     0
 62
     2
  6
CONTINUOUS
  0
LAYER
  2
92
 70
     0
 62
     2
  6
CONTINUOUS
  0
LAYER
  2
93
 70
     0
 62
     2
  6
CONTINUOUS
  0
LAYER
  2
94
 70
     0
 62
     2
  6
CONTINUOUS
  0
LAYER
  2
95
 70
     0
 62
     2
  6
CONTINUOUS
  0
LAYER
  2
96
 70
     0
 62
     2
  6
CONTINUOUS
  0
LAYER
  2
97
 70
     0
 62
     2
  6
CONTINUOUS
  0
LAYER
  2
98
 70
     0
 62
     2
  6
CONTINUOUS
  0
LAYER
  2
99
 70
     0
 62
     2
  6
CONTINUOUS
  0
LAYER
  2
100
 70
     0
 62
    -2
  6
CONTINUOUS
  0
LAYER
  2
101
 70
     0
 62
     8
  6
CONTINUOUS
  0
LAYER
  2
102
 70
     0
 62
     8
  6
CONTINUOUS
  0
LAYER
  2
103
 70
     0
 62
     8
  6
CONTINUOUS
  0
LAYER
  2
104
 70
     0
 62
     8
  6
CONTINUOUS
  0
LAYER
  2
105
 70
     0
 62
     8
  6
CONTINUOUS
  0
LAYER
  2
106
 70
     0
 62
     5
  6
CONTINUOUS
  0
LAYER
  2
107
 70
     0
 62
     3
  6
CONTINUOUS
  0
LAYER
  2
108
 70
     0
 62
     5
  6
CONTINUOUS
  0
LAYER
  2
109
 70
     0
 62
     3
  6
CONTINUOUS
  0
LAYER
  2
110
 70
     0
 62
     2
  6
CONTINUOUS
  0
LAYER
  2
111
 70
     0
 62
     1
  6
CONTINUOUS
  0
LAYER
  2
112
 70
     0
 62
     2
  6
CONTINUOUS
  0
LAYER
  2
113
 70
     0
 62
     2
  6
CONTINUOUS
  0
LAYER
  2
114
 70
     0
 62
     2
  6
CONTINUOUS
  0
LAYER
  2
115
 70
     0
 62
     2
  6
CONTINUOUS
  0
LAYER
  2
116
 70
     0
 62
     2
  6
CONTINUOUS
  0
LAYER
  2
117
 70
     0
 62
     2
  6
CONTINUOUS
  0
LAYER
  2
118
 70
     0
 62
     2
  6
CONTINUOUS
  0
LAYER
  2
119
 70
     0
 62
     2
  6
CONTINUOUS
  0
LAYER
  2
120
 70
     0
 62
     2
  6
CONTINUOUS
  0
LAYER
  2
121
 70
     0
 62
     2
  6
CONTINUOUS
  0
LAYER
  2
122
 70
     0
 62
     2
  6
CONTINUOUS
  0
LAYER
  2
123
 70
     0
 62
     2
  6
CONTINUOUS
  0
LAYER
  2
124
 70
     0
 62
     2
  6
CONTINUOUS
  0
LAYER
  2
125
 70
     0
 62
     2
  6
CONTINUOUS
  0
LAYER
  2
126
 70
     0
 62
     2
  6
CONTINUOUS
  0
LAYER
  2
127
 70
     0
 62
     2
  6
CONTINUOUS
  0
LAYER
  2
128
 70
     0
 62
     2
  6
CONTINUOUS
  0
LAYER
  2
129
 70
     0
 62
     2
  6
CONTINUOUS
  0
LAYER
  2
130
 70
     0
 62
     2
  6
CONTINUOUS
  0
LAYER
  2
131
 70
     0
 62
     2
  6
CONTINUOUS
  0
LAYER
  2
132
 70
     0
 62
     2
  6
CONTINUOUS
  0
LAYER
  2
133
 70
     0
 62
     2
  6
CONTINUOUS
  0
LAYER
  2
134
 70
     0
 62
     2
  6
CONTINUOUS
  0
LAYER
  2
135
 70
     0
 62
     2
  6
CONTINUOUS
  0
LAYER
  2
136
 70
     0
 62
     2
  6
CONTINUOUS
  0
LAYER
  2
137
 70
     0
 62
     2
  6
CONTINUOUS
  0
LAYER
  2
138
 70
     0
 62
     2
  6
CONTINUOUS
  0
LAYER
  2
139
 70
     0
 62
     2
  6
CONTINUOUS
  0
LAYER
  2
140
 70
     0
 62
     2
  6
CONTINUOUS
  0
LAYER
  2
141
 70
     0
 62
     2
  6
CONTINUOUS
  0
LAYER
  2
142
 70
     0
 62
     2
  6
CONTINUOUS
  0
LAYER
  2
143
 70
     0
 62
     2
  6
CONTINUOUS
  0
LAYER
  2
144
 70
     0
 62
     2
  6
CONTINUOUS
  0
LAYER
  2
145
 70
     0
 62
     2
  6
CONTINUOUS
  0
LAYER
  2
146
 70
     0
 62
     2
  6
CONTINUOUS
  0
LAYER
  2
147
 70
     0
 62
     2
  6
CONTINUOUS
  0
LAYER
  2
148
 70
     0
 62
     2
  6
CONTINUOUS
  0
LAYER
  2
149
 70
     0
 62
     2
  6
CONTINUOUS
  0
LAYER
  2
150
 70
     0
 62
     2
  6
CONTINUOUS
  0
LAYER
  2
151
 70
     0
 62
     2
  6
CONTINUOUS
  0
LAYER
  2
152
 70
     0
 62
     2
  6
CONTINUOUS
  0
LAYER
  2
153
 70
     0
 62
     2
  6
CONTINUOUS
  0
LAYER
  2
154
 70
     0
 62
     2
  6
CONTINUOUS
  0
LAYER
  2
155
 70
     0
 62
     2
  6
CONTINUOUS
  0
LAYER
  2
156
 70
     0
 62
     2
  6
CONTINUOUS
  0
LAYER
  2
157
 70
     0
 62
     2
  6
CONTINUOUS
  0
LAYER
  2
158
 70
     0
 62
     2
  6
CONTINUOUS
  0
LAYER
  2
159
 70
     0
 62
     2
  6
CONTINUOUS
  0
LAYER
  2
160
 70
     0
 62
     2
  6
CONTINUOUS
  0
LAYER
  2
161
 70
     0
 62
     7
  6
CONTINUOUS
  0
LAYER
  2
162
 70
     0
 62
     2
  6
CONTINUOUS
  0
LAYER
  2
163
 70
     0
 62
     2
  6
CONTINUOUS
  0
LAYER
  2
164
 70
     0
 62
     2
  6
CONTINUOUS
  0
LAYER
  2
165
 70
     0
 62
     2
  6
CONTINUOUS
  0
LAYER
  2
166
 70
     0
 62
     2
  6
CONTINUOUS
  0
LAYER
  2
167
 70
     0
 62
     4
  6
CONTINUOUS
  0
LAYER
  2
168
 70
     0
 62
     2
  6
CONTINUOUS
  0
LAYER
  2
169
 70
     0
 62
     3
  6
CONTINUOUS
  0
LAYER
  2
170
 70
     0
 62
     2
  6
CONTINUOUS
  0
LAYER
  2
171
 70
     0
 62
     2
  6
CONTINUOUS
  0
LAYER
  2
172
 70
     0
 62
     2
  6
CONTINUOUS
  0
LAYER
  2
173
 70
     0
 62
     2
  6
CONTINUOUS
  0
LAYER
  2
174
 70
     0
 62
     2
  6
CONTINUOUS
  0
LAYER
  2
175
 70
     0
 62
     2
  6
CONTINUOUS
  0
LAYER
  2
176
 70
     0
 62
     2
  6
CONTINUOUS
  0
LAYER
  2
177
 70
     0
 62
     2
  6
CONTINUOUS
  0
LAYER
  2
178
 70
     0
 62
     2
  6
CONTINUOUS
  0
LAYER
  2
179
 70
     0
 62
     2
  6
CONTINUOUS
  0
LAYER
  2
180
 70
     0
 62
     2
  6
CONTINUOUS
  0
LAYER
  2
181
 70
     0
 62
     2
  6
CONTINUOUS
  0
LAYER
  2
182
 70
     0
 62
     2
  6
CONTINUOUS
  0
LAYER
  2
183
 70
     0
 62
     2
  6
CONTINUOUS
  0
LAYER
  2
184
 70
     0
 62
     2
  6
CONTINUOUS
  0
LAYER
  2
185
 70
     0
 62
     2
  6
CONTINUOUS
  0
LAYER
  2
186
 70
     0
 62
     2
  6
CONTINUOUS
  0
LAYER
  2
187
 70
     0
 62
     2
  6
CONTINUOUS
  0
LAYER
  2
188
 70
     0
 62
     2
  6
CONTINUOUS
  0
LAYER
  2
189
 70
     0
 62
     2
  6
CONTINUOUS
  0
LAYER
  2
190
 70
     0
 62
     2
  6
CONTINUOUS
  0
LAYER
  2
191
 70
     0
 62
     2
  6
CONTINUOUS
  0
LAYER
  2
192
 70
     0
 62
     2
  6
CONTINUOUS
  0
LAYER
  2
193
 70
     0
 62
     2
  6
CONTINUOUS
  0
LAYER
  2
194
 70
     0
 62
     2
  6
CONTINUOUS
  0
LAYER
  2
195
 70
     0
 62
     2
  6
CONTINUOUS
  0
LAYER
  2
196
 70
     0
 62
     2
  6
CONTINUOUS
  0
LAYER
  2
197
 70
     0
 62
     2
  6
CONTINUOUS
  0
LAYER
  2
198
 70
     0
 62
    11
  6
CONTINUOUS
  0
LAYER
  2
199
 70
     0
 62
     9
  6
CONTINUOUS
  0
LAYER
  2
200
 70
     0
 62
     7
  6
ESTILO_TQS_0002
  0
LAYER
  2
201
 70
     0
 62
     7
  6
ESTILO_TQS_0001
  0
LAYER
  2
202
 70
     0
 62
     1
  6
CONTINUOUS
  0
LAYER
  2
203
 70
     0
 62
     7
  6
ESTILO_TQS_0001
  0
LAYER
  2
204
 70
     0
 62
     7
  6
ESTILO_TQS_0003
  0
LAYER
  2
205
 70
     0
 62
     5
  6
ESTILO_TQS_0004
  0
LAYER
  2
206
 70
     0
 62
    15
  6
CONTINUOUS
  0
LAYER
  2
207
 70
     0
 62
     2
  6
CONTINUOUS
  0
LAYER
  2
208
 70
     0
 62
    -5
  6
CONTINUOUS
  0
LAYER
  2
209
 70
     0
 62
    -3
  6
CONTINUOUS
  0
LAYER
  2
210
 70
     0
 62
    15
  6
ESTILO_TQS_0002
  0
LAYER
  2
211
 70
     0
 62
     7
  6
ESTILO_TQS_0001
  0
LAYER
  2
212
 70
     0
 62
     1
  6
CONTINUOUS
  0
LAYER
  2
213
 70
     0
 62
    77
  6
CONTINUOUS
  0
LAYER
  2
214
 70
     0
 62
    15
  6
CONTINUOUS
  0
LAYER
  2
215
 70
     0
 62
    15
  6
CONTINUOUS
  0
LAYER
  2
216
 70
     0
 62
     3
  6
CONTINUOUS
  0
LAYER
  2
217
 70
     0
 62
     3
  6
CONTINUOUS
  0
LAYER
  2
218
 70
     0
 62
     2
  6
CONTINUOUS
  0
LAYER
  2
219
 70
     0
 62
    15
  6
CONTINUOUS
  0
LAYER
  2
220
 70
     0
 62
     4
  6
CONTINUOUS
  0
LAYER
  2
221
 70
     0
 62
    11
  6
CONTINUOUS
  0
LAYER
  2
222
 70
     0
 62
     1
  6
CONTINUOUS
  0
LAYER
  2
223
 70
     0
 62
     6
  6
CONTINUOUS
  0
LAYER
  2
224
 70
     0
 62
     1
  6
CONTINUOUS
  0
LAYER
  2
225
 70
     0
 62
     5
  6
CONTINUOUS
  0
LAYER
  2
226
 70
     0
 62
     5
  6
CONTINUOUS
  0
LAYER
  2
227
 70
     0
 62
     5
  6
CONTINUOUS
  0
LAYER
  2
228
 70
     0
 62
    11
  6
CONTINUOUS
  0
LAYER
  2
229
 70
     0
 62
    12
  6
CONTINUOUS
  0
LAYER
  2
230
 70
     0
 62
     6
  6
CONTINUOUS
  0
LAYER
  2
231
 70
     0
 62
     3
  6
CONTINUOUS
  0
LAYER
  2
232
 70
     0
 62
    12
  6
CONTINUOUS
  0
LAYER
  2
233
 70
     0
 62
     4
  6
CONTINUOUS
  0
LAYER
  2
234
 70
     0
 62
     3
  6
CONTINUOUS
  0
LAYER
  2
235
 70
     0
 62
    13
  6
CONTINUOUS
  0
LAYER
  2
236
 70
     0
 62
     2
  6
CONTINUOUS
  0
LAYER
  2
237
 70
     0
 62
     6
  6
CONTINUOUS
  0
LAYER
  2
238
 70
     0
 62
    12
  6
CONTINUOUS
  0
LAYER
  2
239
 70
     0
 62
    78
  6
CONTINUOUS
  0
LAYER
  2
240
 70
     0
 62
     1
  6
CONTINUOUS
  0
LAYER
  2
241
 70
     0
 62
     2
  6
CONTINUOUS
  0
LAYER
  2
242
 70
     0
 62
     4
  6
CONTINUOUS
  0
LAYER
  2
243
 70
     0
 62
     2
  6
CONTINUOUS
  0
LAYER
  2
244
 70
     0
 62
    10
  6
CONTINUOUS
  0
LAYER
  2
245
 70
     0
 62
    10
  6
CONTINUOUS
  0
LAYER
  2
246
 70
     0
 62
    14
  6
CONTINUOUS
  0
LAYER
  2
247
 70
     0
 62
     7
  6
CONTINUOUS
  0
LAYER
  2
248
 70
     0
 62
     7
  6
CONTINUOUS
  0
LAYER
  2
249
 70
     0
 62
     3
  6
CONTINUOUS
  0
LAYER
  2
250
 70
     0
 62
     2
  6
CONTINUOUS
  0
LAYER
  2
251
 70
     0
 62
     1
  6
CONTINUOUS
  0
LAYER
  2
252
 70
     0
 62
     1
  6
CONTINUOUS
  0
LAYER
  2
253
 70
     0
 62
     4
  6
CONTINUOUS
  0
LAYER
  2
254
 70
     0
 62
    10
  6
CONTINUOUS
  0
LAYER
  2
255
 70
     0
 62
    14
  6
CONTINUOUS
  0
ENDTAB
  0
TABLE
  2
STYLE
 70
     1
  0
STYLE
  2
STANDARD
 70
    64
 40
0.000000
 41
1.000000
 50
0.000000
 71
     0
 42
0.200000
  3
ROMANS.SHX
  4

  0
STYLE
  2
TQS_LUCIDA_CONSOLE
 70
     0
 40
0.000000
 41
1.000000
 50
0.000000
 71
     0
 42
0.200000
  3

  0
STYLE
  2
TQS_LUCIDA_CONSOLE_U
 70
     0
 40
0.000000
 41
1.000000
 50
0.000000
 71
     0
 42
0.200000
  3

  0
STYLE
  2
TQS_LUCIDA_CONSOLE_I
 70
     0
 40
0.000000
 41
1.000000
 50
0.000000
 71
     0
 42
0.200000
  3

  0
STYLE
  2
TQS_LUCIDA_CONSOLE_I_U
 70
     0
 40
0.000000
 41
1.000000
 50
0.000000
 71
     0
 42
0.200000
  3

  0
STYLE
  2
TQS_LUCIDA_CONSOLE_B
 70
     0
 40
0.000000
 41
1.000000
 50
0.000000
 71
     0
 42
0.200000
  3

  0
STYLE
  2
TQS_LUCIDA_CONSOLE_B_U
 70
     0
 40
0.000000
 41
1.000000
 50
0.000000
 71
     0
 42
0.200000
  3

  0
STYLE
  2
TQS_LUCIDA_CONSOLE_B_I
 70
     0
 40
0.000000
 41
1.000000
 50
0.000000
 71
     0
 42
0.200000
  3

  0
STYLE
  2
TQS_LUCIDA_CONSOLE_B_I_U
 70
     0
 40
0.000000
 41
1.000000
 50
0.000000
 71
     0
 42
0.200000
  3

  0
STYLE
  2
TQS_VERDANA
 70
     0
 40
0.000000
 41
1.000000
 50
0.000000
 71
     0
 42
0.200000
  3

  0
STYLE
  2
TQS_VERDANA_U
 70
     0
 40
0.000000
 41
1.000000
 50
0.000000
 71
     0
 42
0.200000
  3

  0
STYLE
  2
TQS_VERDANA_I
 70
     0
 40
0.000000
 41
1.000000
 50
0.000000
 71
     0
 42
0.200000
  3

  0
STYLE
  2
TQS_VERDANA_I_U
 70
     0
 40
0.000000
 41
1.000000
 50
0.000000
 71
     0
 42
0.200000
  3

  0
STYLE
  2
TQS_VERDANA_B
 70
     0
 40
0.000000
 41
1.000000
 50
0.000000
 71
     0
 42
0.200000
  3

  0
STYLE
  2
TQS_VERDANA_B_U
 70
     0
 40
0.000000
 41
1.000000
 50
0.000000
 71
     0
 42
0.200000
  3

  0
STYLE
  2
TQS_VERDANA_B_I
 70
     0
 40
0.000000
 41
1.000000
 50
0.000000
 71
     0
 42
0.200000
  3

  0
STYLE
  2
TQS_VERDANA_B_I_U
 70
     0
 40
0.000000
 41
1.000000
 50
0.000000
 71
     0
 42
0.200000
  3

  0
ENDTAB
  0
TABLE
  2
VIEW
 70
     0
  0
ENDTAB
  0
ENDSEC
  0
SECTION
  2
BLOCKS
  0
BLOCK
  8
0
  2
_BLVAO
 70
    64
 10
0.000000
 20
0.000000
  0
POLYLINE
  8
0
 66
     1
  0
VERTEX
  8
0
 10
-0.500000
 20
-0.500000
  0
VERTEX
  8
0
 10
0.500000
 20
-0.500000
  0
VERTEX
  8
0
 10
0.500000
 20
0.500000
  0
VERTEX
  8
0
 10
-0.500000
 20
0.500000
  0
VERTEX
  8
0
 10
-0.500000
 20
-0.500000
  0
SEQEND
  8
0
  0
ENDBLK
  8
0
  0
BLOCK
  8
0
  2
P0515
 70
    64
 10
0.000000
 20
0.000000
  0
POLYLINE
  8
0
 66
     1
  0
VERTEX
  8
0
 10
-2.000000
 20
-7.000000
  0
VERTEX
  8
0
 10
2.000000
 20
-7.000000
  0
VERTEX
  8
0
 10
2.000000
 20
7.000000
  0
VERTEX
  8
0
 10
-2.000000
 20
7.000000
  0
VERTEX
  8
0
 10
-2.000000
 20
-7.000000
  0
SEQEND
  8
0
  0
ENDBLK
  8
0
  0
BLOCK
  8
0
  2
P4015G
 70
    64
 10
0.000000
 20
0.000000
  0
POLYLINE
  8
0
 66
     1
  0
VERTEX
  8
0
 10
-19.500000
 20
-7.000000
  0
VERTEX
  8
0
 10
19.500000
 20
-7.000000
  0
VERTEX
  8
0
 10
19.500000
 20
7.000000
  0
VERTEX
  8
0
 10
-19.500000
 20
7.000000
  0
VERTEX
  8
0
 10
-19.500000
 20
-7.000000
  0
SEQEND
  8
0
  0
POLYLINE
  8
203
 66
     1
  0
VERTEX
  8
203
 10
1.250000
 20
-3.500000
  0
VERTEX
  8
203
 10
2.250000
 20
-4.500000
  0
VERTEX
  8
203
 10
16.000000
 20
-4.500000
  0
VERTEX
  8
203
 10
17.000000
 20
-3.500000
  0
VERTEX
  8
203
 10
17.000000
 20
3.500000
  0
VERTEX
  8
203
 10
16.000000
 20
4.500000
  0
VERTEX
  8
203
 10
2.250000
 20
4.500000
  0
VERTEX
  8
203
 10
1.250000
 20
3.500000
  0
VERTEX
  8
203
 10
1.250000
 20
-3.500000
  0
SEQEND
  8
203
  0
POLYLINE
  8
203
 66
     1
  0
VERTEX
  8
203
 10
-17.000000
 20
-3.500000
  0
VERTEX
  8
203
 10
-16.000000
 20
-4.500000
  0
VERTEX
  8
203
 10
-2.250000
 20
-4.500000
  0
VERTEX
  8
203
 10
-1.250000
 20
-3.500000
  0
VERTEX
  8
203
 10
-1.250000
 20
3.500000
  0
VERTEX
  8
203
 10
-2.250000
 20
4.500000
  0
VERTEX
  8
203
 10
-16.000000
 20
4.500000
  0
VERTEX
  8
203
 10
-17.000000
 20
3.500000
  0
VERTEX
  8
203
 10
-17.000000
 20
-3.500000
  0
SEQEND
  8
203
  0
SOLID
  8
213
 10
1.250000
 20
-3.500000
 11
2.250000
 21
-4.500000
 12
16.000000
 22
-4.500000
 13
16.000000
 23
-4.500000
  0
SOLID
  8
213
 10
1.250000
 20
-3.500000
 11
16.000000
 21
-4.500000
 12
17.000000
 22
-3.500000
 13
17.000000
 23
-3.500000
  0
SOLID
  8
213
 10
1.250000
 20
-3.500000
 11
17.000000
 21
-3.500000
 12
17.000000
 22
3.500000
 13
17.000000
 23
3.500000
  0
SOLID
  8
213
 10
1.250000
 20
-3.500000
 11
17.000000
 21
3.500000
 12
16.000000
 22
4.500000
 13
16.000000
 23
4.500000
  0
SOLID
  8
213
 10
1.250000
 20
-3.500000
 11
16.000000
 21
4.500000
 12
2.250000
 22
4.500000
 13
2.250000
 23
4.500000
  0
SOLID
  8
213
 10
1.250000
 20
-3.500000
 11
2.250000
 21
4.500000
 12
1.250000
 22
3.500000
 13
1.250000
 23
3.500000
  0
SOLID
  8
213
 10
1.250000
 20
-3.500000
 11
1.250000
 21
3.500000
 12
1.250000
 22
-3.500000
 13
1.250000
 23
-3.500000
  0
ENDBLK
  8
0
  0
BLOCK
  8
0
  2
P4015
 70
    64
 10
0.000000
 20
0.000000
  0
POLYLINE
  8
0
 66
     1
  0
VERTEX
  8
0
 10
-19.500000
 20
-7.000000
  0
VERTEX
  8
0
 10
19.500000
 20
-7.000000
  0
VERTEX
  8
0
 10
19.500000
 20
7.000000
  0
VERTEX
  8
0
 10
-19.500000
 20
7.000000
  0
VERTEX
  8
0
 10
-19.500000
 20
-7.000000
  0
SEQEND
  8
0
  0
POLYLINE
  8
203
 66
     1
  0
VERTEX
  8
203
 10
1.250000
 20
-3.500000
  0
VERTEX
  8
203
 10
2.250000
 20
-4.500000
  0
VERTEX
  8
203
 10
16.000000
 20
-4.500000
  0
VERTEX
  8
203
 10
17.000000
 20
-3.500000
  0
VERTEX
  8
203
 10
17.000000
 20
3.500000
  0
VERTEX
  8
203
 10
16.000000
 20
4.500000
  0
VERTEX
  8
203
 10
2.250000
 20
4.500000
  0
VERTEX
  8
203
 10
1.250000
 20
3.500000
  0
VERTEX
  8
203
 10
1.250000
 20
-3.500000
  0
SEQEND
  8
203
  0
POLYLINE
  8
203
 66
     1
  0
VERTEX
  8
203
 10
-17.000000
 20
-3.500000
  0
VERTEX
  8
203
 10
-16.000000
 20
-4.500000
  0
VERTEX
  8
203
 10
-2.250000
 20
-4.500000
  0
VERTEX
  8
203
 10
-1.250000
 20
-3.500000
  0
VERTEX
  8
203
 10
-1.250000
 20
3.500000
  0
VERTEX
  8
203
 10
-2.250000
 20
4.500000
  0
VERTEX
  8
203
 10
-16.000000
 20
4.500000
  0
VERTEX
  8
203
 10
-17.000000
 20
3.500000
  0
VERTEX
  8
203
 10
-17.000000
 20
-3.500000
  0
SEQEND
  8
203
  0
ENDBLK
  8
0
  0
BLOCK
  8
0
  2
P3515G2
 70
    64
 10
0.000000
 20
0.000000
  0
POLYLINE
  8
0
 66
     1
  0
VERTEX
  8
0
 10
-17.000000
 20
-7.000000
  0
VERTEX
  8
0
 10
17.000000
 20
-7.000000
  0
VERTEX
  8
0
 10
17.000000
 20
7.000000
  0
VERTEX
  8
0
 10
-17.000000
 20
7.000000
  0
VERTEX
  8
0
 10
-17.000000
 20
-7.000000
  0
SEQEND
  8
0
  0
POLYLINE
  8
203
 66
     1
  0
VERTEX
  8
203
 10
-1.250000
 20
-3.500000
  0
VERTEX
  8
203
 10
-0.250000
 20
-4.500000
  0
VERTEX
  8
203
 10
13.500000
 20
-4.500000
  0
VERTEX
  8
203
 10
14.500000
 20
-3.500000
  0
VERTEX
  8
203
 10
14.500000
 20
3.500000
  0
VERTEX
  8
203
 10
13.500000
 20
4.500000
  0
VERTEX
  8
203
 10
-0.250000
 20
4.500000
  0
VERTEX
  8
203
 10
-1.250000
 20
3.500000
  0
VERTEX
  8
203
 10
-1.250000
 20
-3.500000
  0
SEQEND
  8
203
  0
POLYLINE
  8
203
 66
     1
  0
VERTEX
  8
203
 10
-14.500000
 20
-3.500000
  0
VERTEX
  8
203
 10
-13.500000
 20
-4.500000
  0
VERTEX
  8
203
 10
-4.750000
 20
-4.500000
  0
VERTEX
  8
203
 10
-3.750000
 20
-3.500000
  0
VERTEX
  8
203
 10
-3.750000
 20
3.500000
  0
VERTEX
  8
203
 10
-4.750000
 20
4.500000
  0
VERTEX
  8
203
 10
-13.500000
 20
4.500000
  0
VERTEX
  8
203
 10
-14.500000
 20
3.500000
  0
VERTEX
  8
203
 10
-14.500000
 20
-3.500000
  0
SEQEND
  8
203
  0
SOLID
  8
213
 10
-14.500000
 20
-3.500000
 11
-13.500000
 21
-4.500000
 12
-4.750000
 22
-4.500000
 13
-4.750000
 23
-4.500000
  0
SOLID
  8
213
 10
-14.500000
 20
-3.500000
 11
-4.750000
 21
-4.500000
 12
-3.750000
 22
-3.500000
 13
-3.750000
 23
-3.500000
  0
SOLID
  8
213
 10
-14.500000
 20
-3.500000
 11
-3.750000
 21
-3.500000
 12
-3.750000
 22
3.500000
 13
-3.750000
 23
3.500000
  0
SOLID
  8
213
 10
-14.500000
 20
-3.500000
 11
-3.750000
 21
3.500000
 12
-4.750000
 22
4.500000
 13
-4.750000
 23
4.500000
  0
SOLID
  8
213
 10
-14.500000
 20
-3.500000
 11
-4.750000
 21
4.500000
 12
-13.500000
 22
4.500000
 13
-13.500000
 23
4.500000
  0
SOLID
  8
213
 10
-14.500000
 20
-3.500000
 11
-13.500000
 21
4.500000
 12
-14.500000
 22
3.500000
 13
-14.500000
 23
3.500000
  0
SOLID
  8
213
 10
-14.500000
 20
-3.500000
 11
-14.500000
 21
3.500000
 12
-14.500000
 22
-3.500000
 13
-14.500000
 23
-3.500000
  0
ENDBLK
  8
0
  0
BLOCK
  8
0
  2
_IDNPRT
 70
    64
 10
0.000000
 20
0.000000
  0
LINE
  8
0
 10
-0.250000
 20
0.000000
 11
0.250000
 21
0.000000
  0
LINE
  8
0
 10
-0.250000
 20
-1.000000
 11
0.250000
 21
-1.000000
  0
ARC
  8
0
 10
0.250000
 20
-0.500000
 40
0.500000
 50
270.000000
 51
90.000000
  0
ARC
  8
0
 10
-0.250000
 20
-0.500000
 40
0.500000
 50
90.000000
 51
270.000000
  0
LINE
  8
0
 10
-0.000000
 20
-0.086155
 11
0.000000
 21
0.134385
  0
ENDBLK
  8
0
  0
BLOCK
  8
0
  2
_PFERV
 70
    64
 10
0.000000
 20
0.000000
  0
SOLID
  8
0
 10
-0.354000
 20
0.354000
 11
-0.500000
 21
0.000000
 12
-0.354000
 22
-0.354000
 13
-0.354000
 23
-0.354000
  0
SOLID
  8
0
 10
-0.354000
 20
0.354000
 11
-0.354000
 21
-0.354000
 12
0.000000
 22
-0.500000
 13
0.000000
 23
-0.500000
  0
SOLID
  8
0
 10
-0.354000
 20
0.354000
 11
0.000000
 21
-0.500000
 12
0.354000
 22
-0.354000
 13
0.354000
 23
-0.354000
  0
SOLID
  8
0
 10
-0.354000
 20
0.354000
 11
0.354000
 21
-0.354000
 12
0.500000
 22
0.000000
 13
0.500000
 23
0.000000
  0
SOLID
  8
0
 10
-0.354000
 20
0.354000
 11
0.500000
 21
0.000000
 12
0.354000
 22
0.354000
 13
0.354000
 23
0.354000
  0
SOLID
  8
0
 10
-0.354000
 20
0.354000
 11
0.354000
 21
0.354000
 12
0.000000
 22
0.500000
 13
0.000000
 23
0.500000
  0
SOLID
  8
0
 10
-0.354000
 20
0.354000
 11
0.000000
 21
0.500000
 12
-0.354000
 22
0.354000
 13
-0.354000
 23
0.354000
  0
LINE
  8
0
 10
-0.550000
 20
0.000000
 11
1.050000
 21
0.000000
  0
LINE
  8
0
 10
0.000000
 20
-0.550000
 11
0.000000
 21
0.550000
  0
ENDBLK
  8
0
  0
BLOCK
  8
0
  2
_PFERV_PF8_0
 70
    64
 10
0.000000
 20
0.000000
  0
INSERT
  8
0
  2
_PFERV
 10
0.000000
 20
0.000000
 41
0.800000
 42
0.800000
  0
TEXT
  8
198
 10
0.000000
 20
3.000000
 40
2.500000
  1
pf8.0
  0
ENDBLK
  8
0
  0
BLOCK
  8
0
  2
_IDNPAR
 70
    64
 10
0.000000
 20
0.000000
  0
LINE
  8
0
 10
0.000000
 20
0.000000
 11
-1.000000
 21
-0.700000
  0
LINE
  8
0
 10
-1.000000
 20
-0.700000
 11
1.000000
 21
-0.700000
  0
LINE
  8
0
 10
1.000000
 20
-0.700000
 11
0.000000
 21
0.000000
  0
CIRCLE
  8
0
 10
0.000000
 20
0.000000
 40
0.050000
  0
ENDBLK
  8
0
  0
BLOCK
  8
0
  2
P3515
 70
    64
 10
0.000000
 20
0.000000
  0
POLYLINE
  8
0
 66
     1
  0
VERTEX
  8
0
 10
-17.000000
 20
-7.000000
  0
VERTEX
  8
0
 10
17.000000
 20
-7.000000
  0
VERTEX
  8
0
 10
17.000000
 20
7.000000
  0
VERTEX
  8
0
 10
-17.000000
 20
7.000000
  0
VERTEX
  8
0
 10
-17.000000
 20
-7.000000
  0
SEQEND
  8
0
  0
POLYLINE
  8
203
 66
     1
  0
VERTEX
  8
203
 10
-1.250000
 20
-3.500000
  0
VERTEX
  8
203
 10
-0.250000
 20
-4.500000
  0
VERTEX
  8
203
 10
13.500000
 20
-4.500000
  0
VERTEX
  8
203
 10
14.500000
 20
-3.500000
  0
VERTEX
  8
203
 10
14.500000
 20
3.500000
  0
VERTEX
  8
203
 10
13.500000
 20
4.500000
  0
VERTEX
  8
203
 10
-0.250000
 20
4.500000
  0
VERTEX
  8
203
 10
-1.250000
 20
3.500000
  0
VERTEX
  8
203
 10
-1.250000
 20
-3.500000
  0
SEQEND
  8
203
  0
POLYLINE
  8
203
 66
     1
  0
VERTEX
  8
203
 10
-14.500000
 20
-3.500000
  0
VERTEX
  8
203
 10
-13.500000
 20
-4.500000
  0
VERTEX
  8
203
 10
-4.750000
 20
-4.500000
  0
VERTEX
  8
203
 10
-3.750000
 20
-3.500000
  0
VERTEX
  8
203
 10
-3.750000
 20
3.500000
  0
VERTEX
  8
203
 10
-4.750000
 20
4.500000
  0
VERTEX
  8
203
 10
-13.500000
 20
4.500000
  0
VERTEX
  8
203
 10
-14.500000
 20
3.500000
  0
VERTEX
  8
203
 10
-14.500000
 20
-3.500000
  0
SEQEND
  8
203
  0
ENDBLK
  8
0
  0
BLOCK
  8
0
  2
P3515F
 70
    64
 10
0.000000
 20
0.000000
  0
POLYLINE
  8
0
 66
     1
  0
VERTEX
  8
0
 10
-17.000000
 20
-7.000000
  0
VERTEX
  8
0
 10
17.000000
 20
-7.000000
  0
VERTEX
  8
0
 10
17.000000
 20
7.000000
  0
VERTEX
  8
0
 10
-17.000000
 20
7.000000
  0
VERTEX
  8
0
 10
-17.000000
 20
-7.000000
  0
SEQEND
  8
0
  0
POLYLINE
  8
203
 66
     1
  0
VERTEX
  8
203
 10
-1.250000
 20
-3.500000
  0
VERTEX
  8
203
 10
-0.250000
 20
-4.500000
  0
VERTEX
  8
203
 10
13.500000
 20
-4.500000
  0
VERTEX
  8
203
 10
14.500000
 20
-3.500000
  0
VERTEX
  8
203
 10
14.500000
 20
3.500000
  0
VERTEX
  8
203
 10
13.500000
 20
4.500000
  0
VERTEX
  8
203
 10
-0.250000
 20
4.500000
  0
VERTEX
  8
203
 10
-1.250000
 20
3.500000
  0
VERTEX
  8
203
 10
-1.250000
 20
-3.500000
  0
SEQEND
  8
203
  0
SOLID
  8
213
 10
-1.250000
 20
-3.500000
 11
-0.250000
 21
-4.500000
 12
13.500000
 22
-4.500000
 13
13.500000
 23
-4.500000
  0
SOLID
  8
213
 10
-1.250000
 20
-3.500000
 11
13.500000
 21
-4.500000
 12
14.500000
 22
-3.500000
 13
14.500000
 23
-3.500000
  0
SOLID
  8
213
 10
-1.250000
 20
-3.500000
 11
14.500000
 21
-3.500000
 12
14.500000
 22
3.500000
 13
14.500000
 23
3.500000
  0
SOLID
  8
213
 10
-1.250000
 20
-3.500000
 11
14.500000
 21
3.500000
 12
13.500000
 22
4.500000
 13
13.500000
 23
4.500000
  0
SOLID
  8
213
 10
-1.250000
 20
-3.500000
 11
13.500000
 21
4.500000
 12
-0.250000
 22
4.500000
 13
-0.250000
 23
4.500000
  0
SOLID
  8
213
 10
-1.250000
 20
-3.500000
 11
-0.250000
 21
4.500000
 12
-1.250000
 22
3.500000
 13
-1.250000
 23
3.500000
  0
SOLID
  8
213
 10
-1.250000
 20
-3.500000
 11
-1.250000
 21
3.500000
 12
-1.250000
 22
-3.500000
 13
-1.250000
 23
-3.500000
  0
POLYLINE
  8
203
 66
     1
  0
VERTEX
  8
203
 10
-14.500000
 20
-3.500000
  0
VERTEX
  8
203
 10
-13.500000
 20
-4.500000
  0
VERTEX
  8
203
 10
-4.750000
 20
-4.500000
  0
VERTEX
  8
203
 10
-3.750000
 20
-3.500000
  0
VERTEX
  8
203
 10
-3.750000
 20
3.500000
  0
VERTEX
  8
203
 10
-4.750000
 20
4.500000
  0
VERTEX
  8
203
 10
-13.500000
 20
4.500000
  0
VERTEX
  8
203
 10
-14.500000
 20
3.500000
  0
VERTEX
  8
203
 10
-14.500000
 20
-3.500000
  0
SEQEND
  8
203
  0
SOLID
  8
213
 10
-14.500000
 20
-3.500000
 11
-13.500000
 21
-4.500000
 12
-4.750000
 22
-4.500000
 13
-4.750000
 23
-4.500000
  0
SOLID
  8
213
 10
-14.500000
 20
-3.500000
 11
-4.750000
 21
-4.500000
 12
-3.750000
 22
-3.500000
 13
-3.750000
 23
-3.500000
  0
SOLID
  8
213
 10
-14.500000
 20
-3.500000
 11
-3.750000
 21
-3.500000
 12
-3.750000
 22
3.500000
 13
-3.750000
 23
3.500000
  0
SOLID
  8
213
 10
-14.500000
 20
-3.500000
 11
-3.750000
 21
3.500000
 12
-4.750000
 22
4.500000
 13
-4.750000
 23
4.500000
  0
SOLID
  8
213
 10
-14.500000
 20
-3.500000
 11
-4.750000
 21
4.500000
 12
-13.500000
 22
4.500000
 13
-13.500000
 23
4.500000
  0
SOLID
  8
213
 10
-14.500000
 20
-3.500000
 11
-13.500000
 21
4.500000
 12
-14.500000
 22
3.500000
 13
-14.500000
 23
3.500000
  0
SOLID
  8
213
 10
-14.500000
 20
-3.500000
 11
-14.500000
 21
3.500000
 12
-14.500000
 22
-3.500000
 13
-14.500000
 23
-3.500000
  0
ENDBLK
  8
0
  0
BLOCK
  8
0
  2
P4015F
 70
    64
 10
0.000000
 20
0.000000
  0
POLYLINE
  8
0
 66
     1
  0
VERTEX
  8
0
 10
-19.500000
 20
-7.000000
  0
VERTEX
  8
0
 10
19.500000
 20
-7.000000
  0
VERTEX
  8
0
 10
19.500000
 20
7.000000
  0
VERTEX
  8
0
 10
-19.500000
 20
7.000000
  0
VERTEX
  8
0
 10
-19.500000
 20
-7.000000
  0
SEQEND
  8
0
  0
POLYLINE
  8
203
 66
     1
  0
VERTEX
  8
203
 10
1.250000
 20
-3.500000
  0
VERTEX
  8
203
 10
2.250000
 20
-4.500000
  0
VERTEX
  8
203
 10
16.000000
 20
-4.500000
  0
VERTEX
  8
203
 10
17.000000
 20
-3.500000
  0
VERTEX
  8
203
 10
17.000000
 20
3.500000
  0
VERTEX
  8
203
 10
16.000000
 20
4.500000
  0
VERTEX
  8
203
 10
2.250000
 20
4.500000
  0
VERTEX
  8
203
 10
1.250000
 20
3.500000
  0
VERTEX
  8
203
 10
1.250000
 20
-3.500000
  0
SEQEND
  8
203
  0
POLYLINE
  8
203
 66
     1
  0
VERTEX
  8
203
 10
-17.000000
 20
-3.500000
  0
VERTEX
  8
203
 10
-16.000000
 20
-4.500000
  0
VERTEX
  8
203
 10
-2.250000
 20
-4.500000
  0
VERTEX
  8
203
 10
-1.250000
 20
-3.500000
  0
VERTEX
  8
203
 10
-1.250000
 20
3.500000
  0
VERTEX
  8
203
 10
-2.250000
 20
4.500000
  0
VERTEX
  8
203
 10
-16.000000
 20
4.500000
  0
VERTEX
  8
203
 10
-17.000000
 20
3.500000
  0
VERTEX
  8
203
 10
-17.000000
 20
-3.500000
  0
SEQEND
  8
203
  0
SOLID
  8
213
 10
1.250000
 20
-3.500000
 11
2.250000
 21
-4.500000
 12
16.000000
 22
-4.500000
 13
16.000000
 23
-4.500000
  0
SOLID
  8
213
 10
1.250000
 20
-3.500000
 11
16.000000
 21
-4.500000
 12
17.000000
 22
-3.500000
 13
17.000000
 23
-3.500000
  0
SOLID
  8
213
 10
1.250000
 20
-3.500000
 11
17.000000
 21
-3.500000
 12
17.000000
 22
3.500000
 13
17.000000
 23
3.500000
  0
SOLID
  8
213
 10
1.250000
 20
-3.500000
 11
17.000000
 21
3.500000
 12
16.000000
 22
4.500000
 13
16.000000
 23
4.500000
  0
SOLID
  8
213
 10
1.250000
 20
-3.500000
 11
16.000000
 21
4.500000
 12
2.250000
 22
4.500000
 13
2.250000
 23
4.500000
  0
SOLID
  8
213
 10
1.250000
 20
-3.500000
 11
2.250000
 21
4.500000
 12
1.250000
 22
3.500000
 13
1.250000
 23
3.500000
  0
SOLID
  8
213
 10
1.250000
 20
-3.500000
 11
1.250000
 21
3.500000
 12
1.250000
 22
-3.500000
 13
1.250000
 23
-3.500000
  0
SOLID
  8
213
 10
-17.000000
 20
-3.500000
 11
-16.000000
 21
-4.500000
 12
-2.250000
 22
-4.500000
 13
-2.250000
 23
-4.500000
  0
SOLID
  8
213
 10
-17.000000
 20
-3.500000
 11
-2.250000
 21
-4.500000
 12
-1.250000
 22
-3.500000
 13
-1.250000
 23
-3.500000
  0
SOLID
  8
213
 10
-17.000000
 20
-3.500000
 11
-1.250000
 21
-3.500000
 12
-1.250000
 22
3.500000
 13
-1.250000
 23
3.500000
  0
SOLID
  8
213
 10
-17.000000
 20
-3.500000
 11
-1.250000
 21
3.500000
 12
-2.250000
 22
4.500000
 13
-2.250000
 23
4.500000
  0
SOLID
  8
213
 10
-17.000000
 20
-3.500000
 11
-2.250000
 21
4.500000
 12
-16.000000
 22
4.500000
 13
-16.000000
 23
4.500000
  0
SOLID
  8
213
 10
-17.000000
 20
-3.500000
 11
-16.000000
 21
4.500000
 12
-17.000000
 22
3.500000
 13
-17.000000
 23
3.500000
  0
SOLID
  8
213
 10
-17.000000
 20
-3.500000
 11
-17.000000
 21
3.500000
 12
-17.000000
 22
-3.500000
 13
-17.000000
 23
-3.500000
  0
ENDBLK
  8
0
  0
BLOCK
  8
0
  2
P2015G
 70
    64
 10
0.000000
 20
0.000000
  0
POLYLINE
  8
0
 66
     1
  0
VERTEX
  8
0
 10
-9.500000
 20
-7.000000
  0
VERTEX
  8
0
 10
9.500000
 20
-7.000000
  0
VERTEX
  8
0
 10
9.500000
 20
7.000000
  0
VERTEX
  8
0
 10
-9.500000
 20
7.000000
  0
VERTEX
  8
0
 10
-9.500000
 20
-7.000000
  0
SEQEND
  8
0
  0
POLYLINE
  8
203
 66
     1
  0
VERTEX
  8
203
 10
-7.000000
 20
-3.500000
  0
VERTEX
  8
203
 10
-6.000000
 20
-4.500000
  0
VERTEX
  8
203
 10
6.000000
 20
-4.500000
  0
VERTEX
  8
203
 10
7.000000
 20
-3.500000
  0
VERTEX
  8
203
 10
7.000000
 20
3.500000
  0
VERTEX
  8
203
 10
6.000000
 20
4.500000
  0
VERTEX
  8
203
 10
-6.000000
 20
4.500000
  0
VERTEX
  8
203
 10
-7.000000
 20
3.500000
  0
VERTEX
  8
203
 10
-7.000000
 20
-3.500000
  0
SEQEND
  8
203
  0
SOLID
  8
213
 10
-7.000000
 20
-3.500000
 11
-6.000000
 21
-4.500000
 12
6.000000
 22
-4.500000
 13
6.000000
 23
-4.500000
  0
SOLID
  8
213
 10
-7.000000
 20
-3.500000
 11
6.000000
 21
-4.500000
 12
7.000000
 22
-3.500000
 13
7.000000
 23
-3.500000
  0
SOLID
  8
213
 10
-7.000000
 20
-3.500000
 11
7.000000
 21
-3.500000
 12
7.000000
 22
3.500000
 13
7.000000
 23
3.500000
  0
SOLID
  8
213
 10
-7.000000
 20
-3.500000
 11
7.000000
 21
3.500000
 12
6.000000
 22
4.500000
 13
6.000000
 23
4.500000
  0
SOLID
  8
213
 10
-7.000000
 20
-3.500000
 11
6.000000
 21
4.500000
 12
-6.000000
 22
4.500000
 13
-6.000000
 23
4.500000
  0
SOLID
  8
213
 10
-7.000000
 20
-3.500000
 11
-6.000000
 21
4.500000
 12
-7.000000
 22
3.500000
 13
-7.000000
 23
3.500000
  0
SOLID
  8
213
 10
-7.000000
 20
-3.500000
 11
-7.000000
 21
3.500000
 12
-7.000000
 22
-3.500000
 13
-7.000000
 23
-3.500000
  0
ENDBLK
  8
0
  0
BLOCK
  8
0
  2
P1015
 70
    64
 10
0.000000
 20
0.000000
  0
POLYLINE
  8
0
 66
     1
  0
VERTEX
  8
0
 10
-4.500000
 20
-7.000000
  0
VERTEX
  8
0
 10
4.500000
 20
-7.000000
  0
VERTEX
  8
0
 10
4.500000
 20
7.000000
  0
VERTEX
  8
0
 10
-4.500000
 20
7.000000
  0
VERTEX
  8
0
 10
-4.500000
 20
-7.000000
  0
SEQEND
  8
0
  0
ENDBLK
  8
0
  0
BLOCK
  8
0
  2
P2015
 70
    64
 10
0.000000
 20
0.000000
  0
POLYLINE
  8
0
 66
     1
  0
VERTEX
  8
0
 10
-9.500000
 20
-7.000000
  0
VERTEX
  8
0
 10
9.500000
 20
-7.000000
  0
VERTEX
  8
0
 10
9.500000
 20
7.000000
  0
VERTEX
  8
0
 10
-9.500000
 20
7.000000
  0
VERTEX
  8
0
 10
-9.500000
 20
-7.000000
  0
SEQEND
  8
0
  0
POLYLINE
  8
203
 66
     1
  0
VERTEX
  8
203
 10
-7.000000
 20
-3.500000
  0
VERTEX
  8
203
 10
-6.000000
 20
-4.500000
  0
VERTEX
  8
203
 10
6.000000
 20
-4.500000
  0
VERTEX
  8
203
 10
7.000000
 20
-3.500000
  0
VERTEX
  8
203
 10
7.000000
 20
3.500000
  0
VERTEX
  8
203
 10
6.000000
 20
4.500000
  0
VERTEX
  8
203
 10
-6.000000
 20
4.500000
  0
VERTEX
  8
203
 10
-7.000000
 20
3.500000
  0
VERTEX
  8
203
 10
-7.000000
 20
-3.500000
  0
SEQEND
  8
203
  0
ENDBLK
  8
0
  0
BLOCK
  8
0
  2
P5515G1
 70
    64
 10
0.000000
 20
0.000000
  0
POLYLINE
  8
0
 66
     1
  0
VERTEX
  8
0
 10
-27.000000
 20
-7.000000
  0
VERTEX
  8
0
 10
27.000000
 20
-7.000000
  0
VERTEX
  8
0
 10
27.000000
 20
7.000000
  0
VERTEX
  8
0
 10
-27.000000
 20
7.000000
  0
VERTEX
  8
0
 10
-27.000000
 20
-7.000000
  0
SEQEND
  8
0
  0
POLYLINE
  8
203
 66
     1
  0
VERTEX
  8
203
 10
8.750000
 20
-3.500000
  0
VERTEX
  8
203
 10
9.750000
 20
-4.500000
  0
VERTEX
  8
203
 10
23.500000
 20
-4.500000
  0
VERTEX
  8
203
 10
24.500000
 20
-3.500000
  0
VERTEX
  8
203
 10
24.500000
 20
3.500000
  0
VERTEX
  8
203
 10
23.500000
 20
4.500000
  0
VERTEX
  8
203
 10
9.750000
 20
4.500000
  0
VERTEX
  8
203
 10
8.750000
 20
3.500000
  0
VERTEX
  8
203
 10
8.750000
 20
-3.500000
  0
SEQEND
  8
203
  0
POLYLINE
  8
203
 66
     1
  0
VERTEX
  8
203
 10
-24.500000
 20
-3.500000
  0
VERTEX
  8
203
 10
-23.500000
 20
-4.500000
  0
VERTEX
  8
203
 10
-9.750000
 20
-4.500000
  0
VERTEX
  8
203
 10
-8.750000
 20
-3.500000
  0
VERTEX
  8
203
 10
-8.750000
 20
3.500000
  0
VERTEX
  8
203
 10
-9.750000
 20
4.500000
  0
VERTEX
  8
203
 10
-23.500000
 20
4.500000
  0
VERTEX
  8
203
 10
-24.500000
 20
3.500000
  0
VERTEX
  8
203
 10
-24.500000
 20
-3.500000
  0
SEQEND
  8
203
  0
POLYLINE
  8
203
 66
     1
  0
VERTEX
  8
203
 10
-6.250000
 20
-3.500000
  0
VERTEX
  8
203
 10
-5.250000
 20
-4.500000
  0
VERTEX
  8
203
 10
5.250000
 20
-4.500000
  0
VERTEX
  8
203
 10
6.250000
 20
-3.500000
  0
VERTEX
  8
203
 10
6.250000
 20
3.500000
  0
VERTEX
  8
203
 10
5.250000
 20
4.500000
  0
VERTEX
  8
203
 10
-5.250000
 20
4.500000
  0
VERTEX
  8
203
 10
-6.250000
 20
3.500000
  0
VERTEX
  8
203
 10
-6.250000
 20
-3.500000
  0
SEQEND
  8
203
  0
SOLID
  8
213
 10
-6.250000
 20
-3.500000
 11
-5.250000
 21
-4.500000
 12
5.250000
 22
-4.500000
 13
5.250000
 23
-4.500000
  0
SOLID
  8
213
 10
-6.250000
 20
-3.500000
 11
5.250000
 21
-4.500000
 12
6.250000
 22
-3.500000
 13
6.250000
 23
-3.500000
  0
SOLID
  8
213
 10
-6.250000
 20
-3.500000
 11
6.250000
 21
-3.500000
 12
6.250000
 22
3.500000
 13
6.250000
 23
3.500000
  0
SOLID
  8
213
 10
-6.250000
 20
-3.500000
 11
6.250000
 21
3.500000
 12
5.250000
 22
4.500000
 13
5.250000
 23
4.500000
  0
SOLID
  8
213
 10
-6.250000
 20
-3.500000
 11
5.250000
 21
4.500000
 12
-5.250000
 22
4.500000
 13
-5.250000
 23
4.500000
  0
SOLID
  8
213
 10
-6.250000
 20
-3.500000
 11
-5.250000
 21
4.500000
 12
-6.250000
 22
3.500000
 13
-6.250000
 23
3.500000
  0
SOLID
  8
213
 10
-6.250000
 20
-3.500000
 11
-6.250000
 21
3.500000
 12
-6.250000
 22
-3.500000
 13
-6.250000
 23
-3.500000
  0
ENDBLK
  8
0
  0
BLOCK
  8
0
  2
K1515
 70
    64
 10
0.000000
 20
0.000000
  0
POLYLINE
  8
0
 66
     1
  0
VERTEX
  8
0
 10
-7.000000
 20
-7.000000
  0
VERTEX
  8
0
 10
7.000000
 20
-7.000000
  0
VERTEX
  8
0
 10
7.000000
 20
7.000000
  0
VERTEX
  8
0
 10
-7.000000
 20
7.000000
  0
VERTEX
  8
0
 10
-7.000000
 20
-7.000000
  0
SEQEND
  8
0
  0
POLYLINE
  8
203
 66
     1
  0
VERTEX
  8
203
 10
-5.000000
 20
-4.000000
  0
VERTEX
  8
203
 10
-4.000000
 20
-5.000000
  0
VERTEX
  8
203
 10
4.000000
 20
-5.000000
  0
VERTEX
  8
203
 10
5.000000
 20
-4.000000
  0
VERTEX
  8
203
 10
5.000000
 20
4.000000
  0
VERTEX
  8
203
 10
4.000000
 20
5.000000
  0
VERTEX
  8
203
 10
-4.000000
 20
5.000000
  0
VERTEX
  8
203
 10
-5.000000
 20
4.000000
  0
VERTEX
  8
203
 10
-5.000000
 20
-4.000000
  0
SEQEND
  8
203
  0
ENDBLK
  8
0
  0
BLOCK
  8
0
  2
FLAMBLOC
 70
    64
 10
0.000000
 20
-0.000000
  0
POLYLINE
  8
0
 66
     1
  0
VERTEX
  8
0
 10
15.529143
 20
-57.955550
  0
VERTEX
  8
0
 10
19.318517
 20
-33.460652
  0
VERTEX
  8
0
 10
33.460652
 20
-19.318517
  0
VERTEX
  8
0
 10
57.955550
 20
-15.529143
  0
VERTEX
  8
0
 10
38.637033
 20
-0.000000
  0
VERTEX
  8
0
 10
33.460652
 20
19.318517
  0
VERTEX
  8
0
 10
42.426407
 20
42.426407
  0
VERTEX
  8
0
 10
19.318517
 20
33.460652
  0
VERTEX
  8
0
 10
0.000000
 20
38.637033
  0
VERTEX
  8
0
 10
-15.529143
 20
57.955550
  0
VERTEX
  8
0
 10
-19.318517
 20
33.460652
  0
VERTEX
  8
0
 10
-33.460652
 20
19.318517
  0
VERTEX
  8
0
 10
-57.955550
 20
15.529143
  0
VERTEX
  8
0
 10
-38.637033
 20
-0.000000
  0
VERTEX
  8
0
 10
-33.460652
 20
-19.318517
  0
VERTEX
  8
0
 10
-42.426407
 20
-42.426407
  0
VERTEX
  8
0
 10
-19.318517
 20
-33.460652
  0
VERTEX
  8
0
 10
0.000000
 20
-38.637033
  0
VERTEX
  8
0
 10
15.529143
 20
-57.955550
  0
SEQEND
  8
0
  0
LINE
  8
0
 10
-2.121320
 20
2.121320
 11
2.121320
 21
-2.121320
  0
LINE
  8
0
 10
-2.121320
 20
-2.121320
 11
2.121320
 21
2.121320
  0
TEXT
  8
0
 10
71.944774
 20
-5.410540
 40
5.000000
  1
Flambagem
  0
TEXT
  8
0
 10
71.266606
 20
8.630857
 40
5.000000
  1
Verificar
  0
TEXT
  8
0
 10
72.182628
 20
-19.403046
 40
5.000000
  1
Local
  0
ENDBLK
  8
0
  0
ENDSEC
  0
SECTION
  2
ENTITIES
  0
INSERT
  8
241
  2
P0515
 10
7.000000
 20
-17.000000
 50
270.000000
  0
INSERT
  8
241
  2
P4015G
 10
19.500000
 20
-7.000000
 50
180.000000
  0
INSERT
  8
241
  2
P4015
 10
59.500000
 20
-7.000000
  0
INSERT
  8
245
  2
P4015
 10
99.500000
 20
-7.000000
  0
INSERT
  8
245
  2
P4015
 10
139.500000
 20
-7.000000
  0
INSERT
  8
245
  2
P4015
 10
179.500000
 20
-7.000000
  0
INSERT
  8
245
  2
P4015
 10
219.500000
 20
-7.000000
  0
INSERT
  8
241
  2
P4015
 10
259.500000
 20
-7.000000
  0
INSERT
  8
252
  2
_BLVAO
 10
147.000000
 20
-7.000000
 41
134.000000
 42
25.000000
  0
INSERT
  8
106
  2
_IDNPRT
 10
147.000000
 20
-32.000000
 41
13.000000
 42
13.000000
  0
TEXT
  8
216
 10
141.750000
 20
-40.312500
 40
5.250000
  1
J2
  0
INSERT
  8
161
  2
_PFERV_PF8_0
 10
10.375000
 20
-7.000000
  0
INSERT
  8
237
  2
_IDNPAR
 10
131.530031
 20
-18.784714
 41
30.000000
 42
30.000000
  0
TEXT
  8
237
 10
118.405031
 20
-38.472214
 40
8.750000
  1
Pr1
  0
INSERT
  8
241
  2
P4015
 10
854.500000
 20
-177.000000
 50
180.000000
  0
INSERT
  8
241
  2
P4015
 10
814.500000
 20
-177.000000
 50
180.000000
  0
INSERT
  8
241
  2
P4015G
 10
774.500000
 20
-177.000000
 50
180.000000
  0
INSERT
  8
245
  2
P4015
 10
734.500000
 20
-177.000000
 50
180.000000
  0
INSERT
  8
245
  2
P3515
 10
697.000000
 20
-177.000000
 50
180.000000
  0
INSERT
  8
245
  2
P3515
 10
662.000000
 20
-177.000000
 50
180.000000
  0
INSERT
  8
245
  2
P3515
 10
627.000000
 20
-177.000000
 50
180.000000
  0
INSERT
  8
245
  2
P3515
 10
592.000000
 20
-177.000000
 50
180.000000
  0
INSERT
  8
245
  2
P4015
 10
554.500000
 20
-177.000000
 50
180.000000
  0
INSERT
  8
245
  2
P4015
 10
514.500000
 20
-177.000000
 50
180.000000
  0
INSERT
  8
245
  2
P4015
 10
474.500000
 20
-177.000000
 50
180.000000
  0
INSERT
  8
241
  2
P4015G
 10
434.500000
 20
-177.000000
  0
INSERT
  8
241
  2
P4015
 10
394.500000
 20
-177.000000
 50
180.000000
  0
INSERT
  8
241
  2
P4015
 10
354.500000
 20
-177.000000
 50
180.000000
  0
INSERT
  8
241
  2
P4015
 10
314.500000
 20
-177.000000
 50
180.000000
  0
INSERT
  8
251
  2
_BLVAO
 10
604.500000
 20
-177.000000
 41
299.000000
 42
14.000000
  0
INSERT
  8
106
  2
_IDNPRT
 10
604.500000
 20
-192.000000
 41
13.000000
 42
13.000000
  0
TEXT
  8
216
 10
599.250000
 20
-200.312500
 40
5.250000
  1
P7
  0
INSERT
  8
161
  2
_PFERV_PF8_0
 10
443.625000
 20
-177.000000
 50
180.000000
  0
INSERT
  8
161
  2
_PFERV_PF8_0
 10
765.375000
 20
-177.000000
 50
180.000000
  0
INSERT
  8
237
  2
_IDNPAR
 10
608.733001
 20
-167.006623
 41
30.000000
 42
30.000000
 50
180.000000
  0
TEXT
  8
237
 10
595.608001
 20
-156.069123
 40
8.750000
  1
Pr2
  0
INSERT
  8
241
  2
P4015F
 10
7.000000
 20
-439.500000
 50
270.000000
  0
INSERT
  8
245
  2
P4015G
 10
19.500000
 20
-467.000000
 50
180.000000
  0
INSERT
  8
245
  2
P4015
 10
59.500000
 20
-467.000000
  0
INSERT
  8
245
  2
P4015
 10
99.500000
 20
-467.000000
  0
INSERT
  8
241
  2
P4015
 10
139.500000
 20
-467.000000
  0
INSERT
  8
241
  2
P0515
 10
162.000000
 20
-467.000000
  0
INSERT
  8
241
  2
P2015G
 10
174.500000
 20
-467.000000
  0
INSERT
  8
245
  2
P4015
 10
204.500000
 20
-467.000000
 50
180.000000
  0
INSERT
  8
245
  2
P1015
 10
229.500000
 20
-467.000000
 50
180.000000
  0
INSERT
  8
245
  2
P4015
 10
254.500000
 20
-467.000000
 50
180.000000
  0
INSERT
  8
241
  2
P0515
 10
277.000000
 20
-467.000000
 50
180.000000
  0
INSERT
  8
252
  2
_BLVAO
 10
59.500000
 20
-467.000000
 41
49.000000
 42
25.000000
 50
180.000000
  0
INSERT
  8
106
  2
_IDNPRT
 10
59.500000
 20
-442.000000
 41
13.000000
 42
13.000000
 50
180.000000
  0
TEXT
  8
216
 10
54.250000
 20
-438.937500
 40
5.250000
  1
J1
  0
INSERT
  8
251
  2
_BLVAO
 10
229.500000
 20
-467.000000
 41
89.000000
 42
14.000000
 50
180.000000
  0
INSERT
  8
106
  2
_IDNPRT
 10
229.500000
 20
-452.000000
 41
13.000000
 42
13.000000
 50
180.000000
  0
TEXT
  8
216
 10
224.250000
 20
-448.937500
 40
5.250000
  1
P2
  0
INSERT
  8
161
  2
_PFERV_PF8_0
 10
10.375000
 20
-467.000000
  0
INSERT
  8
161
  2
_PFERV_PF8_0
 10
174.500000
 20
-467.000000
  0
INSERT
  8
237
  2
_IDNPAR
 10
138.121187
 20
-472.852251
 41
30.000000
 42
30.000000
  0
TEXT
  8
237
 10
124.996187
 20
-492.539751
 40
8.750000
  1
Pr3
  0
INSERT
  8
241
  2
P4015G
 10
599.500000
 20
-832.000000
  0
INSERT
  8
241
  2
P4015
 10
559.500000
 20
-832.000000
 50
180.000000
  0
INSERT
  8
241
  2
P4015
 10
519.500000
 20
-832.000000
 50
180.000000
  0
INSERT
  8
241
  2
P4015
 10
479.500000
 20
-832.000000
 50
180.000000
  0
INSERT
  8
241
  2
P4015
 10
439.500000
 20
-832.000000
 50
180.000000
  0
INSERT
  8
241
  2
P0515
 10
417.000000
 20
-832.000000
 50
180.000000
  0
INSERT
  8
241
  2
P4015G
 10
394.500000
 20
-832.000000
  0
INSERT
  8
161
  2
_PFERV_PF8_0
 10
608.625000
 20
-832.000000
 50
180.000000
  0
INSERT
  8
161
  2
_PFERV_PF8_0
 10
403.625000
 20
-832.000000
 50
180.000000
  0
INSERT
  8
237
  2
_IDNPAR
 10
512.066782
 20
-821.377552
 41
30.000000
 42
30.000000
 50
180.000000
  0
TEXT
  8
237
 10
498.941782
 20
-810.440052
 40
8.750000
  1
Pr4
  0
INSERT
  8
241
  2
P4015G
 10
727.000000
 20
-819.500000
 50
270.000000
  0
INSERT
  8
241
  2
P2015G
 10
729.500000
 20
-792.000000
  0
INSERT
  8
245
  2
P4015
 10
759.500000
 20
-792.000000
  0
INSERT
  8
245
  2
P0515
 10
782.000000
 20
-792.000000
  0
INSERT
  8
245
  2
P2015
 10
794.500000
 20
-792.000000
  0
INSERT
  8
241
  2
P3515
 10
822.000000
 20
-792.000000
  0
INSERT
  8
241
  2
P3515
 10
857.000000
 20
-792.000000
  0
INSERT
  8
251
  2
_BLVAO
 10
772.000000
 20
-792.000000
 41
64.000000
 42
14.000000
 50
180.000000
  0
INSERT
  8
106
  2
_IDNPRT
 10
772.000000
 20
-777.000000
 41
13.000000
 42
13.000000
 50
180.000000
  0
TEXT
  8
216
 10
766.750000
 20
-773.937500
 40
5.250000
  1
P6
  0
INSERT
  8
161
  2
_PFERV_PF8_0
 10
729.500000
 20
-792.000000
  0
INSERT
  8
237
  2
_IDNPAR
 10
801.435824
 20
-800.453086
 41
30.000000
 42
30.000000
  0
TEXT
  8
237
 10
788.310824
 20
-820.140586
 40
8.750000
  1
Pr5
  0
INSERT
  8
241
  2
P4015
 10
314.500000
 20
-832.000000
 50
180.000000
  0
INSERT
  8
241
  2
P4015
 10
354.500000
 20
-832.000000
 50
180.000000
  0
INSERT
  8
161
  2
_PFERV_PF8_0
 10
403.625000
 20
-832.000000
  0
INSERT
  8
237
  2
_IDNPAR
 10
340.785273
 20
-840.457034
 41
30.000000
 42
30.000000
  0
TEXT
  8
237
 10
327.660273
 20
-860.144534
 40
8.750000
  1
Pr6
  0
INSERT
  8
241
  2
P4015
 10
699.500000
 20
-947.000000
 50
180.000000
  0
INSERT
  8
241
  2
P4015
 10
659.500000
 20
-947.000000
 50
180.000000
  0
INSERT
  8
241
  2
P4015
 10
619.500000
 20
-947.000000
 50
180.000000
  0
INSERT
  8
241
  2
P4015
 10
579.500000
 20
-947.000000
 50
180.000000
  0
INSERT
  8
241
  2
P4015
 10
539.500000
 20
-947.000000
 50
180.000000
  0
INSERT
  8
241
  2
P4015
 10
499.500000
 20
-947.000000
 50
180.000000
  0
INSERT
  8
241
  2
P4015
 10
459.500000
 20
-947.000000
 50
180.000000
  0
INSERT
  8
241
  2
P4015
 10
419.500000
 20
-947.000000
 50
180.000000
  0
INSERT
  8
241
  2
P4015
 10
379.500000
 20
-947.000000
 50
180.000000
  0
INSERT
  8
241
  2
P4015
 10
339.500000
 20
-947.000000
 50
180.000000
  0
INSERT
  8
241
  2
P4015G
 10
299.500000
 20
-947.000000
 50
180.000000
  0
INSERT
  8
241
  2
P0515
 10
287.000000
 20
-937.000000
 50
90.000000
  0
INSERT
  8
161
  2
_PFERV_PF8_0
 10
290.375000
 20
-947.000000
 50
180.000000
  0
INSERT
  8
237
  2
_IDNPAR
 10
507.149555
 20
-939.826379
 41
30.000000
 42
30.000000
 50
180.000000
  0
TEXT
  8
237
 10
494.024555
 20
-928.888879
 40
8.750000
  1
Pr7
  0
INSERT
  8
241
  2
P4015
 10
7.000000
 20
-39.500000
 50
270.000000
  0
INSERT
  8
241
  2
P4015
 10
7.000000
 20
-79.500000
 50
270.000000
  0
INSERT
  8
241
  2
P4015
 10
7.000000
 20
-119.500000
 50
270.000000
  0
INSERT
  8
241
  2
P4015G
 10
7.000000
 20
-159.500000
 50
270.000000
  0
INSERT
  8
241
  2
P4015
 10
7.000000
 20
-199.500000
 50
270.000000
  0
INSERT
  8
241
  2
P4015
 10
7.000000
 20
-239.500000
 50
270.000000
  0
INSERT
  8
241
  2
P4015
 10
7.000000
 20
-279.500000
 50
270.000000
  0
INSERT
  8
241
  2
P4015
 10
7.000000
 20
-319.500000
 50
270.000000
  0
INSERT
  8
241
  2
P4015
 10
7.000000
 20
-359.500000
 50
270.000000
  0
INSERT
  8
241
  2
P4015
 10
7.000000
 20
-399.500000
 50
270.000000
  0
INSERT
  8
161
  2
_PFERV_PF8_0
 10
7.000000
 20
-448.625000
 50
270.000000
  0
INSERT
  8
161
  2
_PFERV_PF8_0
 10
7.000000
 20
-430.375000
 50
270.000000
  0
INSERT
  8
161
  2
_PFERV_PF8_0
 10
7.000000
 20
-168.625000
 50
270.000000
  0
INSERT
  8
237
  2
_IDNPAR
 10
1.990692
 20
-206.420228
 41
30.000000
 42
30.000000
 50
270.000000
  0
TEXT
  8
237
 10
-8.946808
 20
-219.545228
 40
8.750000
 50
90.000000
  1
Pr8
  0
INSERT
  8
241
  2
P3515G2
 10
287.000000
 20
-17.000000
 50
270.000000
  0
INSERT
  8
241
  2
P3515
 10
287.000000
 20
-52.000000
 50
270.000000
  0
INSERT
  8
241
  2
P4015
 10
287.000000
 20
-89.500000
 50
270.000000
  0
INSERT
  8
241
  2
P4015
 10
287.000000
 20
-129.500000
 50
270.000000
  0
INSERT
  8
241
  2
P3515F
 10
287.000000
 20
-167.000000
 50
90.000000
  0
INSERT
  8
245
  2
P3515
 10
287.000000
 20
-202.000000
 50
270.000000
  0
INSERT
  8
245
  2
P4015
 10
287.000000
 20
-239.500000
 50
270.000000
  0
INSERT
  8
245
  2
P4015
 10
287.000000
 20
-279.500000
 50
270.000000
  0
INSERT
  8
245
  2
P4015
 10
287.000000
 20
-319.500000
 50
270.000000
  0
INSERT
  8
245
  2
P4015
 10
287.000000
 20
-359.500000
 50
270.000000
  0
INSERT
  8
245
  2
P4015
 10
287.000000
 20
-399.500000
 50
270.000000
  0
INSERT
  8
245
  2
P4015
 10
287.000000
 20
-439.500000
 50
270.000000
  0
INSERT
  8
241
  2
P3515F
 10
287.000000
 20
-477.000000
 50
270.000000
  0
INSERT
  8
241
  2
P3515
 10
287.000000
 20
-512.000000
 50
270.000000
  0
INSERT
  8
241
  2
P3515
 10
287.000000
 20
-547.000000
 50
270.000000
  0
INSERT
  8
241
  2
P4015
 10
287.000000
 20
-584.500000
 50
270.000000
  0
INSERT
  8
241
  2
P4015
 10
287.000000
 20
-624.500000
 50
270.000000
  0
INSERT
  8
241
  2
P4015G
 10
287.000000
 20
-664.500000
 50
90.000000
  0
INSERT
  8
241
  2
P4015
 10
287.000000
 20
-704.500000
 50
270.000000
  0
INSERT
  8
241
  2
P4015
 10
287.000000
 20
-744.500000
 50
270.000000
  0
INSERT
  8
241
  2
P4015
 10
287.000000
 20
-784.500000
 50
270.000000
  0
INSERT
  8
241
  2
P5515G1
 10
287.000000
 20
-832.000000
 50
270.000000
  0
INSERT
  8
241
  2
K1515
 10
287.000000
 20
-867.000000
 50
270.000000
  0
INSERT
  8
245
  2
P2015
 10
287.000000
 20
-884.500000
 50
90.000000
  0
INSERT
  8
245
  2
P4015
 10
287.000000
 20
-914.500000
 50
90.000000
  0
INSERT
  8
251
  2
_BLVAO
 10
287.000000
 20
-322.000000
 41
274.000000
 42
14.000000
 50
270.000000
  0
INSERT
  8
106
  2
_IDNPRT
 10
272.000000
 20
-322.000000
 41
13.000000
 42
13.000000
 50
270.000000
  0
TEXT
  8
216
 10
268.937500
 20
-329.875000
 40
5.250000
 50
90.000000
  1
Vao
  0
INSERT
  8
251
  2
_BLVAO
 10
287.000000
 20
-904.500000
 41
59.000000
 42
14.000000
 50
90.000000
  0
INSERT
  8
106
  2
_IDNPRT
 10
302.000000
 20
-904.500000
 41
13.000000
 42
13.000000
 50
90.000000
  0
TEXT
  8
216
 10
310.312500
 20
-909.750000
 40
5.250000
 50
90.000000
  1
P1
  0
INSERT
  8
161
  2
_PFERV_PF8_0
 10
287.000000
 20
-160.375000
 50
270.000000
  0
INSERT
  8
161
  2
_PFERV_PF8_0
 10
287.000000
 20
-176.125000
 50
270.000000
  0
INSERT
  8
161
  2
_PFERV_PF8_0
 10
287.000000
 20
-483.625000
 50
270.000000
  0
INSERT
  8
161
  2
_PFERV_PF8_0
 10
287.000000
 20
-467.875000
 50
270.000000
  0
INSERT
  8
161
  2
_PFERV_PF8_0
 10
287.000000
 20
-7.875000
 50
270.000000
  0
INSERT
  8
161
  2
_PFERV_PF8_0
 10
287.000000
 20
-832.000000
 50
270.000000
  0
INSERT
  8
161
  2
_PFERV_PF8_0
 10
287.000000
 20
-655.375000
 50
270.000000
  0
INSERT
  8
237
  2
_IDNPAR
 10
278.408066
 20
-640.383039
 41
30.000000
 42
30.000000
 50
270.000000
  0
TEXT
  8
237
 10
267.470566
 20
-653.508039
 40
8.750000
 50
90.000000
  1
Pr9
  0
INSERT
  8
241
  2
P4015G
 10
612.000000
 20
-804.500000
 50
90.000000
  0
INSERT
  8
161
  2
_PFERV_PF8_0
 10
612.000000
 20
-795.375000
 50
90.000000
  0
INSERT
  8
237
  2
_IDNPAR
 10
622.331388
 20
-801.186631
 41
30.000000
 42
30.000000
 50
90.000000
  0
TEXT
  8
237
 10
642.018888
 20
-818.686631
 40
8.750000
 50
90.000000
  1
Pr10
  0
INSERT
  8
241
  2
P3515G2
 10
727.000000
 20
-937.000000
 50
90.000000
  0
INSERT
  8
241
  2
P4015
 10
727.000000
 20
-899.500000
 50
90.000000
  0
INSERT
  8
241
  2
P4015
 10
727.000000
 20
-859.500000
 50
90.000000
  0
INSERT
  8
161
  2
_PFERV_PF8_0
 10
727.000000
 20
-946.125000
 50
90.000000
  0
INSERT
  8
161
  2
_PFERV_PF8_0
 10
727.000000
 20
-828.625000
 50
90.000000
  0
INSERT
  8
237
  2
_IDNPAR
 10
735.591191
 20
-879.923662
 41
30.000000
 42
30.000000
 50
90.000000
  0
TEXT
  8
237
 10
755.278691
 20
-897.423662
 40
8.750000
 50
90.000000
  1
Pr11
  0
INSERT
  8
241
  2
P2015G
 10
882.000000
 20
-944.500000
 50
90.000000
  0
INSERT
  8
241
  2
P3515
 10
882.000000
 20
-917.000000
 50
90.000000
  0
INSERT
  8
241
  2
P4015
 10
882.000000
 20
-879.500000
 50
270.000000
  0
INSERT
  8
241
  2
P4015
 10
882.000000
 20
-839.500000
 50
270.000000
  0
INSERT
  8
241
  2
P5515G1
 10
882.000000
 20
-792.000000
 50
270.000000
  0
INSERT
  8
241
  2
P4015
 10
882.000000
 20
-744.500000
 50
270.000000
  0
INSERT
  8
241
  2
P4015
 10
882.000000
 20
-704.500000
 50
270.000000
  0
INSERT
  8
241
  2
P4015
 10
882.000000
 20
-664.500000
 50
270.000000
  0
INSERT
  8
241
  2
P4015
 10
882.000000
 20
-624.500000
 50
270.000000
  0
INSERT
  8
241
  2
P4015
 10
882.000000
 20
-584.500000
 50
270.000000
  0
INSERT
  8
241
  2
P4015
 10
882.000000
 20
-544.500000
 50
270.000000
  0
INSERT
  8
241
  2
P4015
 10
882.000000
 20
-504.500000
 50
270.000000
  0
INSERT
  8
241
  2
P4015G
 10
882.000000
 20
-464.500000
 50
270.000000
  0
INSERT
  8
241
  2
P4015
 10
882.000000
 20
-424.500000
 50
270.000000
  0
INSERT
  8
241
  2
P4015
 10
882.000000
 20
-384.500000
 50
270.000000
  0
INSERT
  8
241
  2
P4015
 10
882.000000
 20
-344.500000
 50
270.000000
  0
INSERT
  8
241
  2
P4015
 10
882.000000
 20
-304.500000
 50
270.000000
  0
INSERT
  8
241
  2
P4015
 10
882.000000
 20
-264.500000
 50
270.000000
  0
INSERT
  8
241
  2
P4015
 10
882.000000
 20
-224.500000
 50
270.000000
  0
INSERT
  8
241
  2
P3515G2
 10
882.000000
 20
-187.000000
 50
270.000000
  0
INSERT
  8
161
  2
_PFERV_PF8_0
 10
882.000000
 20
-177.875000
 50
90.000000
  0
INSERT
  8
161
  2
_PFERV_PF8_0
 10
882.000000
 20
-792.000000
 50
90.000000
  0
INSERT
  8
161
  2
_PFERV_PF8_0
 10
882.000000
 20
-944.500000
 50
90.000000
  0
INSERT
  8
161
  2
_PFERV_PF8_0
 10
882.000000
 20
-473.625000
 50
90.000000
  0
INSERT
  8
237
  2
_IDNPAR
 10
888.787409
 20
-480.601225
 41
30.000000
 42
30.000000
 50
90.000000
  0
TEXT
  8
237
 10
908.474909
 20
-498.101225
 40
8.750000
 50
90.000000
  1
Pr12
  0
TEXT
  8
222
 10
-19.009308
 20
60.500000
 40
13.750000
  1
Desenho de fiada impar de alvenarias
  0
ENDSEC
  0
EOF
